<svg xmlns="http://www.w3.org/2000/svg" viewBox="0 0 750 750">
  <path fill="#000" d="M344 330.5c.9-4.2 7.6-7.9 11-9.6 13.7-6.7 36.2-5.7 47.5 5.2 4.1 3.9 5.2 9.6-2.1 5.8-5.6-2.9-11.9-4.6-18.3-4.6-5.7 0-11.8-.3-17.5.1-5.3.4-10.5 2-15.3 4.5-2.5 1.4-6.2 2.7-5.3-1.4zm-77.2 292.9c-4.4 0-8 3.6-8 8s3.6 8 8 8 8-3.6 8-8-3.6-8-8-8zm-12.1-7.5c-2.2 0-4.1 1.8-4.1 4.1 0 2.2 1.8 4.1 4.1 4.1 2.2 0 4.1-1.8 4.1-4.1s-1.8-4.1-4.1-4.1zm228.5 7.5c-4.4 0-8 3.6-8 8s3.6 8 8 8 8-3.6 8-8-3.6-8-8-8zm12.1-7.5c-2.2 0-4.1 1.8-4.1 4.1 0 2.2 1.8 4.1 4.1 4.1 2.2 0 4.1-1.8 4.1-4.1-.1-2.3-1.9-4.1-4.1-4.1zm177.2-130.4c-20.4 54.2-66.8 64.2-65.9 92.8.9 28.6-25.6 102.8-92.8 103.7-67.2.9-66.8 2.6-85.9-21.7-17.8-22.7-36-30.6-52.8-30.9-16.8.2-35 8.2-52.8 30.9-19.1 24.3-18.7 22.6-85.9 21.7-67.2-.9-93.7-75.1-92.8-103.7.9-28.6-45.6-38.6-65.9-92.8-20.4-54.2 49-88.1 49-88.1l-4.3-6.1v-27.8c-24.7-23 0-42.5 0-42.5-1.3-32.5 19.1-37.3 19.1-37.3-16.9-21.7 6.9-30.8 6.9-30.8l2.6-54.2C165.1 58.8 354.5 66.8 375 68c20.5-1.3 209.9-9.2 224.2 130.7l2.6 54.2s23.9 9.1 6.9 30.8c0 0 20.4 4.8 19.1 37.3 0 0 24.7 19.5 0 42.5v27.8l-4.3 6.1c0 .1 69.4 33.9 49 88.1zm-75.6-183.6s4.9 85.3 4.9 87.5l10.7-4.9s3.6-54.7-1.6-70.3c-5.2-15.6-14-12.3-14-12.3zm-426.7-67.2 1.8 21.7h406l2.8-33.7c2.6-30.4-7.1-60.9-27.6-83.5-2.2-2.4-4.4-4.7-6.8-7-13.8-13.1-30.2-23.2-47.8-30.4-24.6-10.2-51.1-15-77.6-16.9-17.1-1.2-34.3-.8-51.4-.9-17.9-.1-35.8.1-53.6 2-24.3 2.6-48.5 8.1-70.8 18.3-50 22.9-79.6 75.5-75 130.4zm346.7 104.9 16.6-1.3c19.2-11.1 20.2-49.8 20.2-49.8h-11.4c6.5 14-25.4 51.1-25.4 51.1zm-309.2-51h-11.4s1 38.7 20.2 49.8l16.6 1.3c0-.1-31.9-37.2-25.4-51.1zM156 436.5l46 69.9s20.8 16.9 87.6-42.5c5.1-4.5 10.2-8.9 15.3-13.3 10-8.5 20.3-16.8 30.9-24.6 4.4-3.2 8.9-6.4 13.5-9.4.8-.5 1.7-1.1 2.5-1.6 1.8-1.2 3.6-2.4 5.5-3.6 1.8-1.2 3.7-2.3 5.6-3.3 1.9-1 3.9-1.9 5.9-2.6 1-.3 2.1-.6 3.1-.9 3-.7 6 .1 8.9 1.1 2.2.7 4.4 1.6 6.5 2.8 4.5 2.4 8.8 5.1 13 7.9 8.6 5.7 16.9 11.8 25 18.2 12 9.4 23.6 19.3 35 29.4 66.8 59.4 87.6 42.5 87.6 42.5l46-69.9-10.4-69.4-3.9 2.6s-.9 31.2-1.7 33c-.9 1.7-17.8 35.1-19.5 33.4-1.7-1.7-37.7-33.8-37.7-33.8s-34.4-2.1-67.9-44.3c-1.1-1.4-.4-3.6 1.3-4 .7-.2 1.4-.1 2 .3 8.6 5.4 75 46.2 93.2 33.3 19.5-13.9 30.8-45.1 30.8-45.1v-57.7h-11.3s4.3 51.2-27.8 65.5c-32.1 14.3-98.5-31.7-134.5-58.6h-63.2c-36 26.9-102.4 72.9-134.5 58.6-32.1-14.3-27.8-65.5-27.8-65.5h-11.3v57.7s11.3 31.2 30.8 45.1c18.2 13 84.6-27.8 93.2-33.3.6-.4 1.3-.5 2-.3 1.8.5 2.5 2.6 1.3 4-33.5 42.2-67.9 44.3-67.9 44.3s-36 32.1-37.7 33.8c-1.7 1.7-18.7-31.7-19.5-33.4-.9-1.7-1.7-33-1.7-33l-3.9-2.6-10.3 69.3zm-18.6-52 10.7 4.9c0-2.3 4.9-87.5 4.9-87.5s-8.8-3.3-14 12.4c-5.1 15.6-1.6 70.2-1.6 70.2zm18.6 154 31.9-23.4s-43.6-62.8-43.6-64.1c0-1.3-3.3-42.3-3.3-42.3s-48.2 12.7-47.8 61.2c.3 48.5 43.3 70.3 44.3 69.6.9-.7 18.5-1 18.5-1zm131.8 91.1c0-13.7-21.3-37.7-41.2-37.7-19.9 0-31.1 15.3-22.9 32.5 5.8 12.4 16.1 27.3 36 27.3s28.1-8.5 28.1-22.1zm215.6-37.8c-19.9 0-41.2 24.1-41.2 37.7 0 13.7 8.3 22.1 28.1 22.1s30.1-15 36-27.3c8.2-17.2-3.1-32.5-22.9-32.5zm44.6-64.6s-68.1-16.1-98.1-41.7c-29.4-25.1-57.9-33.1-75-33.8-17 .7-45.6 8.7-75 33.8-29.9 25.6-98.1 41.7-98.1 41.7-84.6 39-3.5 118.4-3.5 118.4-6.9-15.2-1.3-38.6-1.3-38.6 37.7-68.6 129.7 5.2 129.7 5.2h5.6v-55.3c0-2 1.7-3.7 3.7-3.7h11.3c2 0 3.7-1.7 3.7-3.7s1.7-3.7 3.7-3.7h3.7c4.1 0 7.4-3.3 7.4-7.4h18c0 4.1 3.3 7.4 7.4 7.4h3.7c2 0 3.7 1.7 3.7 3.7s1.7 3.7 3.7 3.7h11.3c2 0 3.7 1.7 3.7 3.7v55.3h5.6s92-73.8 129.7-5.2c0 0 5.6 23.4-1.3 38.6.2 0 81.3-79.4-3.3-118.4zm108.8-57.4c.3-48.5-47.8-61.2-47.8-61.2s-3.3 41-3.3 42.3c0 1.3-43.6 64.1-43.6 64.1l31.9 23.4s17.6.3 18.5 1c1 .7 44-21.1 44.3-69.6z"/>
</svg>
