<svg width="21" height="20" viewBox="0 0 21 20" xmlns="http://www.w3.org/2000/svg">
  <path fill="currentColor" d="M4.465.471c-.563.256-1.285.83-1.603 1.277-.339.477-.625 1.314-.694 2.03L2.05 4.996h15.88l-.116-1.218c-.066-.686-.354-1.551-.659-1.98-.298-.418-1.026-.995-1.619-1.282-.971-.47-1.52-.52-5.562-.516-3.832.005-4.634.074-5.51.471Zm-2.35 5.624c0 .191-.17.413-.376.492-.288.11-.375.585-.375 2.04 0 1.753-.05 1.938-.682 2.481-.53.455-.682.809-.682 1.578 0 .778.228 1.293 1.057 2.392.582.77 1.058 1.658 1.058 1.973 0 .315.228.946.506 1.401.277.455.892.99 1.366 1.188.474.198 1.254.36 1.733.36.48 0 1.153-.128 1.497-.285.544-.248.636-.47.7-1.688.072-1.36.095-1.401.761-1.356.379.026.688-.058.688-.187 0-.13.084-.235.188-.236.103 0 .15.844.105 1.876-.07 1.613-.024 1.876.332 1.876.357 0 .403-.263.333-1.876-.046-1.032.002-1.876.105-1.875.103 0 .188.106.188.235s.309.213.687.187c.666-.045.69-.003.762 1.356.064 1.219.156 1.44.7 1.688.343.157 1.017.285 1.496.285.48 0 1.26-.162 1.733-.36.475-.198 1.09-.733 1.367-1.188.277-.455.505-1.08.505-1.388 0-.308.407-1.092.903-1.742.497-.65 1.008-1.459 1.136-1.796.129-.338.164-.931.08-1.319-.086-.386-.428-.918-.762-1.18-.546-.43-.605-.663-.605-2.386 0-1.467-.087-1.943-.375-2.054-.207-.08-.376-.3-.376-.492 0-.29-1.31-.349-7.877-.349-6.566 0-7.877.058-7.877.349Zm6.232 1.803c-.333.359-1.169.977-1.857 1.373-.687.397-1.392.723-1.566.724-.174.001-.54-.363-.812-.81-.272-.447-.496-1.066-.496-1.376-.001-.548.066-.562 2.668-.562h2.67l-.607.651Zm8.021-.268c0 .21-.164.775-.364 1.254-.2.478-.532.935-.738 1.014-.206.08-.934-.16-1.618-.534-.685-.372-1.555-1-1.935-1.397l-.69-.72h2.673c2.233 0 2.672.063 2.672.383Zm-5.751 4.118c0 .367-.167.5-.626.5-.458 0-.625-.133-.625-.5s.167-.5.625-.5c.459 0 .626.133.626.5Zm-2.001.383c0 .195-.338.529-.75.742-.707.366-.75.36-.75-.088 0-.262.253-.646.562-.854.31-.207.647-.327.75-.266.104.062.188.272.188.466Zm3.635-.23c.339.223.616.62.616.882 0 .45-.043.456-.75.09-.45-.232-.75-.586-.75-.882 0-.271.06-.493.133-.493.074 0 .412.182.75.404Zm-5.886 1.347c0 .138-.31.249-.687.247-.536-.003-.605-.058-.313-.247.206-.133.516-.244.688-.246.172-.002.312.109.312.246Zm8.252 0c.293.189.224.244-.312.247-.378.002-.688-.11-.688-.247s.141-.248.313-.246c.172.002.481.113.688.246Zm-8.512 3.614c.166.2.264.554.219.786-.046.233-.28.547-.521.699-.32.2-.557.2-.875 0-.241-.152-.476-.466-.521-.699-.046-.232.052-.586.218-.786.166-.2.499-.363.74-.363s.575.163.74.363Zm9.253 0c.165.2.264.554.218.786-.046.233-.28.547-.52.699-.32.2-.557.2-.876 0-.24-.152-.475-.466-.521-.699-.046-.232.053-.586.218-.786.166-.2.5-.363.74-.363.242 0 .575.163.74.363Zm-7.14.234c-.074.19-.098.828-.055 1.418.043.59.219 1.118.39 1.175.228.074.313-.313.313-1.419 0-.878-.109-1.52-.258-1.52-.142 0-.318.155-.39.346Zm2.84-.034c-.063.172-.086.798-.053 1.392.034.593.121 1.139.195 1.212.073.074.254.06.4-.03.147-.091.267-.778.267-1.526 0-.997-.093-1.36-.349-1.36a.519.519 0 0 0-.46.312Z"/>
</svg>
