<svg width="18" height="20" viewBox="0 0 18 20" xmlns="http://www.w3.org/2000/svg">
  <path fill="currentColor" d="M8.19.421c-.429.227-.983.698-1.23 1.046a6.26 6.26 0 0 0-.684 1.298l-.232.666-.394-.603c-.217-.332-.707-.77-1.088-.976-.38-.204-1.009-.372-1.396-.372s-1.059.182-1.493.405c-.435.223-.947.678-1.138 1.012A5.35 5.35 0 0 0 .04 4.184c-.101.474-.018.97.275 1.631.29.655.68 1.1 1.255 1.431.809.466.823.493.446.87-.348.347-.39.792-.39 4.188 0 3.41.04 3.834.39 4.15.266.241.772.353 1.597.353.664 0 1.207.046 1.207.103 0 .056-.383.728-.852 1.493-.468.766-.851 1.438-.851 1.494 0 .057.332.103.737.103.645 0 .876-.167 1.84-1.33.606-.732 1.161-1.355 1.234-1.385.072-.03.61.566 1.194 1.323.967 1.254 1.133 1.377 1.86 1.384.44.005.798-.038.798-.095 0-.056-.383-.728-.851-1.494-.468-.765-.851-1.437-.851-1.493 0-.057.714-.103 1.588-.103 1.36 0 1.65-.067 2.022-.466.402-.431.434-.737.434-4.114 0-3.538-.015-3.662-.492-4.111-.271-.255-.727-.463-1.012-.464-.471 0-.447-.044.264-.479.43-.263.972-.72 1.204-1.017.231-.297.53-.944.662-1.437.18-.67.18-1.126 0-1.795-.132-.493-.43-1.14-.663-1.437-.231-.296-.773-.754-1.203-1.017-.544-.333-1.107-.476-1.847-.47-.628.005-1.384.178-1.845.421Zm3.179 1.485c.031 0 .247.31.48.691.231.381.421.932.421 1.224 0 .293-.188.84-.417 1.216-.263.431-.676.753-1.117.87-.385.102-.987.108-1.338.012-.351-.096-.865-.433-1.141-.749-.412-.472-.484-.741-.398-1.503.058-.51.276-1.116.485-1.348.21-.23.676-.499 1.037-.595.36-.096.942-.094 1.293.004.35.098.663.178.695.178ZM4.182 3.609c.235.234.426.654.426.934s-.176.726-.39.991c-.277.342-.603.477-1.117.462-.47-.013-.857-.183-1.099-.482-.206-.255-.374-.691-.374-.971s.191-.7.426-.934c.236-.237.71-.426 1.064-.426.355 0 .828.19 1.064.426Zm2.922 2.766c.26.32.787.736 1.17.925.685.337.651.344-1.746.348l-2.444.005.78-.53c.462-.314.892-.842 1.057-1.298.24-.661.308-.717.494-.4.118.203.428.63.689.95ZM15.63 8.78l-1.858 1.108-.001 2.342-.002 2.342 1.866 1.117c1.026.615 1.934 1.118 2.018 1.118.085 0 .153-2.06.153-4.577s-.072-4.573-.16-4.568c-.087.005-.995.508-2.016 1.118Z"/>
</svg>
