<svg width="113" height="50" viewBox="0 0 113 50" fill="none" xmlns="http://www.w3.org/2000/svg">
  <path stroke="#FFE81F" d="M20.911 1.2c-.398.105-1.034.32-1.413.48-.379.16-.943.458-1.255.665a7.607 7.607 0 0 0-1.119.974 8.892 8.892 0 0 0-.951 1.273 8.11 8.11 0 0 0-.63 1.429c-.181.588-.231.984-.23 1.807.002.666.066 1.295.175 1.707.095.36.395 1.105.666 1.657.286.58.721 1.263 1.03 1.616.294.337 1.002 1.119 1.572 1.738.852.925 1.015 1.151.916 1.27-.103.125-1.428.146-9.396.146H1v8.24l11.723-.03c10.775-.028 11.772-.045 12.326-.205.331-.096 1.023-.38 1.537-.633.738-.362 1.098-.62 1.715-1.23.637-.629.87-.95 1.25-1.725.258-.524.545-1.247.64-1.606.116-.441.17-1.026.166-1.807-.003-.712-.068-1.414-.17-1.83a8.866 8.866 0 0 0-.45-1.306c-.159-.346-.537-.96-.842-1.364-.305-.404-1.171-1.386-1.924-2.183-.753-.797-1.37-1.517-1.37-1.6 0-.134.65-.152 5.372-.152h5.371l.026 7.807.026 7.807 4.142.027 4.142.026V8.53h9.94V1l-16.492.006c-15.838.005-16.522.013-17.217.195Zm37.39-.124c-.026.042-1.41 4.594-3.076 10.117a12216.85 12216.85 0 0 1-3.434 11.371c-.222.732-.379 1.399-.347 1.482.051.133.588.148 4.243.126 3.597-.023 4.195-.048 4.266-.177.045-.083.299-.829.563-1.657l.481-1.506h7.825l.506 1.56c.278.858.542 1.615.587 1.682.061.092 1.071.121 4.122.121 2.852 0 4.074-.033 4.153-.112.062-.062.096-.164.075-.226l-3.111-10.054A5442.604 5442.604 0 0 0 71.629 2.43L71.18 1h-6.416c-3.528 0-6.436.034-6.462.076Zm21.423 11.363c0 6.291.028 11.51.061 11.598.055.141.556.159 4.62.159h4.557v-3.264c0-1.795.025-3.263.056-3.263.03 0 1.24 1.193 2.686 2.651 2.555 2.576 2.655 2.663 3.484 3.053.47.22 1.147.482 1.506.582.596.165 1.294.184 8.008.216l7.355.034v-8.233l-5.949-.03c-5.393-.028-5.979-.047-6.264-.203-.173-.094-.34-.24-.372-.323-.041-.108.203-.33.835-.764.491-.336 1.2-.936 1.577-1.333.376-.398.832-1.002 1.013-1.343.181-.341.424-.974.54-1.405.156-.583.211-1.095.215-1.99.003-.814-.05-1.416-.163-1.857-.093-.36-.349-1.021-.569-1.471a6.404 6.404 0 0 0-1.112-1.578c-.39-.419-1.019-.966-1.396-1.217a10.51 10.51 0 0 0-1.273-.717c-.323-.144-1.011-.37-1.529-.501C96.668 1 96.668 1 88.196 1h-8.472v11.439Zm14.941-4.681c.182.099.42.325.527.502.118.193.196.502.196.773 0 .272-.078.58-.196.773a1.511 1.511 0 0 1-.497.477c-.249.13-.756.156-2.966.156h-2.666v-1.39c0-.763.032-1.421.073-1.461.04-.04 1.226-.06 2.636-.042 2.24.027 2.604.054 2.893.212Zm-29.601.623c0 .028.405 1.367.901 2.976s.877 2.964.848 3.011c-.03.048-.865.087-1.856.087-1.762 0-1.801-.004-1.801-.21 0-.116.394-1.494.875-3.063.481-1.568.91-2.852.954-2.852.043 0 .079.023.079.051ZM1.04 25.944c-.03.078 1.54 5.297 3.488 11.598L8.07 49l3.914-.026 3.914-.026 1.319-4.241c.725-2.332 1.346-4.269 1.38-4.303.035-.035.157.247.272.625l1.298 4.304 1.09 3.614 3.931.027L29.12 49l.096-.252c.053-.14 1.636-5.32 3.52-11.512 1.97-6.48 3.385-11.297 3.334-11.348-.049-.049-2.01-.076-4.395-.062l-4.306.026-.904 3.038c-.498 1.67-.93 3.037-.96 3.036-.03 0-.434-1.232-.897-2.736-.464-1.505-.902-2.882-.974-3.062l-.131-.326h-9.534l-.104.326c-.057.18-.38 1.32-.716 2.536a450.17 450.17 0 0 1-.77 2.753c-.105.366-.182.497-.234.401-.043-.078-.357-1.09-.697-2.25a490.32 490.32 0 0 0-.87-2.937l-.252-.829H5.71c-3.878 0-4.625.023-4.67.142Zm39.051-.017c-.053.07-.19.442-.303.83-.114.386-1.662 5.509-3.439 11.384-1.864 6.164-3.193 10.72-3.142 10.77.049.05 1.96.077 4.293.063l4.206-.026.48-1.55c.265-.852.52-1.587.565-1.633.046-.046 1.82-.072 3.943-.057l3.86.026.533 1.632.534 1.632h4.155c2.519 0 4.178-.038 4.214-.096.032-.052-1.505-5.147-3.416-11.321-1.912-6.175-3.529-11.34-3.594-11.478l-.12-.25-6.336-.026c-4.996-.02-6.357 0-6.433.1Zm21.86 11.47v11.6h9.238v-3.212c0-1.768.02-3.214.045-3.214.025 0 1.234 1.19 2.686 2.645 2.425 2.429 2.703 2.674 3.394 3.008.415.2 1.025.444 1.356.542.557.166 1.346.181 10.537.208 9.693.028 9.955.024 10.744-.175a8.857 8.857 0 0 0 1.433-.508 9.36 9.36 0 0 0 1.243-.771c.341-.257.82-.718 1.065-1.026.245-.307.597-.855.781-1.216a10.7 10.7 0 0 0 .57-1.406c.196-.627.234-.96.23-2.054-.003-.93-.055-1.493-.182-1.958a8.971 8.971 0 0 0-.47-1.255 8.539 8.539 0 0 0-.738-1.195c-.247-.325-1.095-1.292-1.886-2.147-.79-.856-1.451-1.617-1.469-1.692-.028-.115.917-.137 5.748-.137h5.781v-7.632h-7.462c-4.771 0-7.677.038-8.058.106-.328.058-.89.199-1.249.313a11.7 11.7 0 0 0-1.453.62 7.088 7.088 0 0 0-1.482 1.056 8.267 8.267 0 0 0-1.126 1.358 8.307 8.307 0 0 0-.693 1.467 8.151 8.151 0 0 0-.318 1.413 6.62 6.62 0 0 0 .053 1.456c.066.438.25 1.155.41 1.594.16.439.468 1.094.684 1.456.216.362.973 1.284 1.682 2.047a74.652 74.652 0 0 1 1.477 1.622c.104.128.157.283.12.343-.049.079-1.84.11-6.163.11-5.6 0-6.122-.014-6.445-.175-.193-.097-.365-.25-.381-.339-.02-.11.255-.353.834-.739.476-.316 1.106-.81 1.401-1.099.296-.288.722-.81.95-1.161.226-.35.529-1.003.673-1.449.2-.621.273-1.096.313-2.028.04-.927.01-1.405-.12-2.008a8.636 8.636 0 0 0-.575-1.618 6.477 6.477 0 0 0-1.06-1.536c-.362-.39-.94-.912-1.287-1.16a10.34 10.34 0 0 0-1.385-.797 11.817 11.817 0 0 0-1.59-.572c-.826-.22-.936-.222-9.346-.255l-8.51-.032v11.601Zm14.828-4.773c.23.105.5.313.598.463.112.17.18.47.183.804.004.385-.052.61-.203.815a1.85 1.85 0 0 1-.552.46c-.301.153-.667.175-2.93.175H71.29V32.43l2.535.003c2.27.002 2.58.022 2.954.192ZM47.69 36.142c.5 1.628.888 3.017.861 3.088-.037.097-.474.128-1.813.128-1.483 0-1.772-.024-1.822-.152-.032-.084.314-1.36.77-2.837.454-1.476.872-2.843.929-3.036.056-.193.116-.306.133-.25.018.054.442 1.431.942 3.059Z"/>
</svg>
