<svg width="22" height="14" viewBox="0 0 22 14" xmlns="http://www.w3.org/2000/svg">
  <path fill="currentColor" d="M8.92.401c-.672.21-1.656.713-2.187 1.118-.53.405-1.254 1.205-1.608 1.778L4.48 4.339l.688.527c.378.29 1.974 1.166 3.545 1.946 1.572.781 4.103 1.843 5.625 2.361 1.522.517 2.842.865 2.934.773.093-.092.313-.862.49-1.71.268-1.284.241-1.818-.163-3.205-.355-1.218-.82-2-1.73-2.91-.862-.86-1.71-1.383-2.753-1.692-.828-.246-1.837-.44-2.24-.429-.404.011-1.284.191-1.956.401ZM.358 1.726C.161 1.93 0 2.317 0 2.588c0 .27.332.887.737 1.368.406.482 1.802 1.585 3.104 2.451 1.3.866 3.456 2.085 4.79 2.71s3.762 1.584 5.397 2.13c1.635.546 3.82 1.079 4.855 1.184 1.231.125 2.095.077 2.5-.14.339-.181.617-.557.617-.835 0-.278-.418-.897-.929-1.376-.51-.478-1.246-1.082-1.635-1.341-.388-.26-.806-.472-.928-.472s-.222.246-.222.546c0 .3.402.884.893 1.297.491.414.834.81.762.882-.071.072-.87-.006-1.773-.173-.904-.167-2.63-.628-3.835-1.024C13.13 9.399 10.6 8.317 8.714 7.39 6.83 6.463 4.548 5.156 3.647 4.486c-.901-.67-1.64-1.313-1.643-1.428-.002-.115.547-.133 1.221-.04.923.126 1.319.055 1.603-.287.325-.392.265-.497-.44-.77-.45-.172-1.46-.38-2.245-.46-.961-.097-1.546-.023-1.786.225Zm3.811 6.47c.098.432.434 1.332.745 2 .312.668 1.038 1.604 1.613 2.081.575.477 1.753 1.074 2.617 1.328 1.295.38 1.842.405 3.111.14.847-.177 1.855-.528 2.24-.78.384-.252.624-.532.533-.623-.09-.09-1.465-.656-3.054-1.255-1.589-.6-3.983-1.672-5.32-2.384C5.315 7.992 4.169 7.41 4.105 7.41c-.064 0-.036.353.063.786Z"/>
</svg>
