<svg width="16" height="22" viewBox="0 0 16 22" xmlns="http://www.w3.org/2000/svg">
  <path fill="currentColor" d="M.341.38C.034.722 0 1.737 0 10.627c0 9.295.022 9.887.377 10.21.335.306 1.14.345 7.184.345 6.332 0 6.83-.027 7.148-.38.307-.342.341-1.357.341-10.247 0-9.296-.022-9.888-.377-10.211C14.338.038 13.533 0 7.489 0 1.157 0 .66.026.341.38ZM11.82 4.189l-1.398 1.419-.514-.517c-.391-.395-.456-.574-.271-.76.18-.18.313-.183.521-.01.22.184.518-.008 1.387-.895.876-.892 1.166-1.08 1.39-.893.23.192.018.505-1.115 1.656Zm-3.161.483c0 .265-.527.312-3.505.312-2.978 0-3.505-.047-3.505-.312 0-.264.527-.311 3.505-.311 2.978 0 3.505.047 3.505.311ZM13.09 7.06c.07.114-.493.825-1.25 1.58l-1.377 1.373-.534-.538c-.409-.412-.478-.596-.293-.782.18-.181.313-.183.521-.01.22.185.498.013 1.29-.797.555-.568 1.123-1.032 1.263-1.032.139 0 .31.093.38.206ZM8.659 9.033c0 .265-.527.312-3.505.312-2.978 0-3.505-.047-3.505-.312 0-.264.527-.311 3.505-.311 2.978 0 3.505.047 3.505.311Zm4.41 2.352c.058.094-.521.798-1.287 1.563l-1.392 1.391-.492-.527c-.369-.396-.433-.586-.255-.765.175-.176.307-.177.515-.003.22.184.498.012 1.29-.798.555-.568 1.123-1.032 1.263-1.032.139 0 .3.077.358.171Zm-4.41 1.98c0 .22-.725.316-3.293.431-1.81.082-3.388.09-3.505.017-.116-.072-.212-.266-.212-.431 0-.249.591-.3 3.505-.3 2.819 0 3.505.056 3.505.283Zm4.444 2.437c.078.126-.471.827-1.243 1.585l-1.383 1.36-.54-.545c-.414-.417-.485-.603-.3-.788.18-.181.313-.184.521-.01.22.184.498.013 1.29-.797.555-.568 1.123-1.032 1.263-1.032.139 0 .316.102.392.227ZM8.66 17.755c0 .265-.527.312-3.505.312-2.978 0-3.505-.047-3.505-.312s.527-.311 3.505-.311c2.978 0 3.505.046 3.505.311Z"/>
</svg>
