<svg width="22" height="21" viewBox="0 0 22 21" xmlns="http://www.w3.org/2000/svg">
  <path fill="currentColor" d="M9.304 2.283c-3.992 1.699-5.382 2.434-5.532 2.93-.11.364-.422.913-.69 1.22-.27.306-.742.557-1.05.557-.35 0-.835.564-1.3 1.512C.18 9.627-.009 10.546 0 12.084c.008 1.462.23 2.565.758 3.754.439.988 1.328 2.195 2.154 2.921.773.681 2.069 1.464 2.879 1.74.81.275 2.244.501 3.188.501a9.02 9.02 0 0 0 3.288-.676c1.003-.431 1.572-.872 1.572-1.218 0-.298.331-.854.736-1.235.406-.38.968-.692 1.248-.692s.7-.43.933-.955c.31-.701.64-.955 1.235-.955.538 0 1.274-.472 2.184-1.399 1.028-1.047 1.322-1.56 1.169-2.04-.112-.353-.434-.73-.714-.838-.281-.108-.836.017-1.233.277-.679.445-.657.324.364-2.03.597-1.378 1.085-2.711 1.085-2.964 0-.253-.258-.693-.572-.977-.538-.487-.79-.297-4.263 3.214-2.252 2.277-3.77 4.076-3.895 4.615-.113.486-.484 1.163-.826 1.505-.341.341-1.002.716-1.469.833-.466.117-1.352.085-1.968-.071-.624-.159-1.412-.678-1.78-1.174-.404-.544-.66-1.373-.66-2.136 0-.938.225-1.482.913-2.2.502-.524 1.295-1.036 1.761-1.139.51-.112 2.293-1.635 4.476-3.823 3.582-3.592 3.62-3.645 3.04-4.287-.325-.357-.675-.643-.779-.635-.104.008-2.588 1.036-5.52 2.283Zm3.101 4.707-1.894 1.913.797.796.796.796 1.894-1.913 1.894-1.913-.797-.796-.796-.796-1.894 1.913Zm-4.728 3.52c-.617.485-.846.956-.846 1.739 0 .748.215 1.223.708 1.569.39.272 1.01.495 1.378.495.368 0 .981-.331 1.362-.736.381-.406.693-1.1.693-1.543 0-.443-.251-1.026-.557-1.295-.307-.27-.858-.58-1.225-.692-.434-.132-.962.03-1.513.463Z"/>
</svg>
