<svg width="22" height="19" viewBox="0 0 22 19" xmlns="http://www.w3.org/2000/svg">
  <path fill="currentColor" d="M12.348.584c-.291.321-1.115.807-1.83 1.08l-1.302.498v4.081h12.189V2.098l-1.598-.465c-.88-.256-1.837-.727-2.127-1.049C17.248.107 16.76 0 15.014 0c-1.747 0-2.235.107-2.666.584ZM2.304 3.477c-.613.421-1.115.948-1.115 1.171 0 .224-.267.406-.594.406-.327 0-.595.134-.595.297 0 .164.268.298.595.298.327 0 .594.133.594.297 0 .163-.267.297-.594.297-.327 0-.595.134-.595.298 0 .174 1.01.293 2.453.287 1.566-.006 2.64-.152 2.973-.404.387-.294.52-.824.52-2.072V2.676l-1.264.018c-.848.011-1.629.269-2.378.783Zm4.237 1.131c0 .991.115 1.338.445 1.338s.446-.347.446-1.338c0-.99-.115-1.338-.446-1.338-.33 0-.445.347-.445 1.338Zm1.486 0c0 .736.134 1.338.297 1.338.164 0 .298-.602.298-1.338 0-.736-.134-1.338-.298-1.338-.163 0-.297.602-.297 1.338Zm-4.897-.34c-.346.253-.479.59-.357.907.114.299.073.43-.1.323-.162-.1-.295-.348-.295-.55 0-.204.16-.53.357-.726.196-.197.49-.357.652-.357.162 0 .046.181-.257.403Zm6.394 3.145c-.17.316-.308.89-.308 1.275 0 .385-.267 1.224-.594 1.866-.327.642-.595 1.404-.595 1.695 0 .29-.268 1.232-.594 2.092-.327.86-.595 1.665-.595 1.787 0 .123.463.223 1.03.223.738 0 1.123-.174 1.36-.617.194-.362.506-.547.754-.446.233.094.6.243.816.332.23.093.538-.16.744-.609.192-.423.35-.875.35-1.004 0-.13-.32-.381-.71-.56-.663-.301-.692-.413-.447-1.756.193-1.063.529-1.685 1.299-2.4.915-.852 1.236-.967 2.706-.967 1.23 0 1.904.168 2.565.64.84.597.888.734.752 2.147-.091.951-.004 1.732.235 2.112.21.33.472 1.17.584 1.865.195 1.21.247 1.263 1.258 1.263h1.055l-.227-1.412c-.125-.777-.243-2.482-.264-3.79-.02-1.308.075-2.813.21-3.345l.247-.966h-5.661c-5.294 0-5.682.037-5.97.575Zm1.717.837c-.056.286-.297.52-.538.52-.241 0-.483-.234-.538-.52-.07-.365.09-.52.538-.52.447 0 .608.155.538.52Zm8.621 0c-.055.286-.297.52-.538.52-.24 0-.483-.234-.538-.52-.07-.365.09-.52.538-.52.448 0 .609.155.538.52Zm-11.84.823c-.205.248-1.016.867-1.803 1.377-.786.509-1.506 1.128-1.6 1.374-.096.247.04.773.298 1.168.364.556.686.698 1.419.627.845-.082.958-.205 1.045-1.133.054-.572.269-1.24.479-1.486.209-.245.526-.88.704-1.412.178-.532.213-.966.078-.966s-.413.203-.62.45Zm8.004.812c-.19.368-.559.913-.819 1.21-.343.394-.478 1.192-.492 2.913l-.02 2.372 1.052-.089c1.038-.087 1.052-.107 1.236-1.723.101-.9.28-1.97.398-2.379.116-.409.287-1.065.378-1.458.114-.49-.006-.842-.38-1.115-.3-.22-.65-.4-.777-.4-.126 0-.385.301-.576.67Zm-9.538 2.403c.056.287-.094.496-.354.496-.248 0-.533-.134-.634-.298a.638.638 0 0 1 .01-.61.486.486 0 0 1 .538-.198c.189.063.387.338.44.61Zm3.323-.099c0 .327-.193.595-.429.595-.235 0-.51-.134-.612-.298a.62.62 0 0 1 0-.594c.101-.164.377-.297.612-.297.236 0 .429.267.429.594Zm6.689.021c0 .23-.234.462-.52.517-.297.057-.52-.08-.52-.318 0-.23.091-.51.204-.622.112-.113.346-.157.52-.1.174.058.316.293.316.523Zm3.286-.292c.11.178.051.472-.13.654-.244.243-.42.243-.663 0-.181-.182-.24-.476-.13-.654.11-.178.317-.323.461-.323.144 0 .352.145.462.323Zm-7.738 3.228c-.291.645-.45 1.381-.352 1.635.098.254.376.462.619.462.242 0 .714-.616 1.047-1.37.333-.753.533-1.49.442-1.635-.09-.146-.403-.265-.695-.265-.332 0-.731.441-1.061 1.173Zm-5.775 1.74c-.18.06-.327.433-.327.828 0 .673.104.718 1.644.718 1.22 0 1.691-.12 1.824-.465.098-.257.035-.61-.141-.786-.176-.176-.849-.338-1.496-.361-.647-.024-1.324.006-1.504.067Zm8.666.001c-.805.08-.966.22-.966.836 0 .712.063.736 1.71.65 1.459-.076 1.709-.173 1.709-.662 0-.368-.267-.636-.743-.747-.41-.095-1.178-.13-1.71-.077Zm3.9.29c-.21.21-.306.578-.214.818.12.31.635.437 1.772.437 1.512 0 1.603-.042 1.603-.743 0-.409-.167-.753-.372-.766-.204-.012-.83-.046-1.39-.075-.56-.029-1.19.12-1.4.329Z"/>
</svg>
